<svg width="166" height="169" viewBox="0 0 166 169" fill="none" xmlns="http://www.w3.org/2000/svg">
<ellipse cx="83" cy="80" rx="83" ry="80" fill="#E2DA19" fill-opacity="0.35"/>
<g filter="url(#filter0_d)">
<path d="M86.297 159.902L23 80.8077L148.571 80L86.297 159.902Z" fill="#ACF5B3" fill-opacity="0.4"/>
</g>
<g filter="url(#filter1_d)">
<path d="M84.7855 0.406911L148.087 79.4983L22.5152 80.3121L84.7855 0.406911Z" fill="#099718" fill-opacity="0.4"/>
</g>
<path d="M27.96 91.44C29.64 91.1733 30.6667 90.9067 31.04 90.64C31.4133 90.3467 31.6 89.7867 31.6 88.96V67.36C28.16 67.4133 26.32 67.4933 26.08 67.6C25.84 67.7067 25.6533 67.8267 25.52 67.96C25.2 68.3867 24.8133 69.8933 24.36 72.48L22.32 72.32C22.2933 71.92 22.28 71.1467 22.28 70C22.28 68.8267 22.4 67.2533 22.64 65.28H44.44C44.68 67.2533 44.8 68.8267 44.8 70C44.8 71.1467 44.7867 71.92 44.76 72.32L42.72 72.48C42.2667 69.8933 41.8667 68.3867 41.52 67.96C41.4133 67.8267 41.24 67.7067 41 67.6C40.76 67.4933 38.92 67.4133 35.48 67.36V89.92C35.48 90.5333 35.7467 90.88 36.28 90.96L39.36 91.44L39.2 93H28.2L27.96 91.44ZM54.9259 93.36C52.2326 93.36 50.1393 92.44 48.6459 90.6C47.1793 88.76 46.4459 86.44 46.4459 83.64C46.4459 80.8133 47.2993 78.4133 49.0059 76.44C50.7126 74.4667 52.9659 73.48 55.7659 73.48C60.2993 73.48 62.6726 76.2667 62.8859 81.84L61.8459 82.6L50.2459 83.24C50.2459 88.1733 52.3526 90.64 56.5659 90.64C58.4059 90.64 60.2059 90.1867 61.9659 89.28L62.8059 90.6C61.9259 91.32 60.7793 91.96 59.3659 92.52C57.9526 93.08 56.4726 93.36 54.9259 93.36ZM50.3659 81.4L58.6459 80.68C58.9126 80.6533 59.0459 80.4 59.0459 79.92C59.0459 78.7467 58.7259 77.7333 58.0859 76.88C57.4726 76.0267 56.4193 75.6 54.9259 75.6C53.4326 75.6 52.3393 76.1067 51.6459 77.12C50.9793 78.1067 50.5526 79.5333 50.3659 81.4ZM65.8675 88.08C65.8675 86.08 66.7208 84.5867 68.4275 83.6C70.1342 82.6133 72.9075 82.1067 76.7475 82.08V80.8C76.7475 77.3333 75.4942 75.6 72.9875 75.6C71.7875 75.6 71.0275 75.7733 70.7075 76.12C70.4142 76.4667 70.0942 77.6 69.7475 79.52L67.5875 79.28C67.3742 78.4533 67.2675 77.6 67.2675 76.72C67.2675 75.8133 67.2808 75.2267 67.3075 74.96C68.8808 73.9733 70.9475 73.48 73.5075 73.48C76.0675 73.48 77.8408 73.9733 78.8275 74.96C79.8408 75.9467 80.3475 77.5733 80.3475 79.84V89.04C80.3475 89.7333 80.5075 90.2267 80.8275 90.52C81.1742 90.7867 82.0275 91.0533 83.3875 91.32L83.1475 92.6L78.3475 93.12C78.0808 93.12 77.8008 92.8667 77.5075 92.36C77.2142 91.8533 77.0675 91.3867 77.0675 90.96C77.0675 90.5067 77.0808 90.1733 77.1075 89.96L76.7875 89.84L76.3075 90.56C75.0542 92.4267 73.3342 93.36 71.1475 93.36C69.6542 93.36 68.4008 92.8933 67.3875 91.96C66.3742 91.0267 65.8675 89.7333 65.8675 88.08ZM69.7475 87.72C69.7475 88.68 70.0008 89.4133 70.5075 89.92C71.0142 90.4 71.7342 90.64 72.6675 90.64C73.6008 90.64 74.6542 90.1867 75.8275 89.28C76.4408 88.8 76.7475 88.2933 76.7475 87.76V83.84C74.3475 83.8933 72.5742 84.2133 71.4275 84.8C70.3075 85.3867 69.7475 86.36 69.7475 87.72ZM86.5363 93L86.2963 91.44C87.6029 91.1733 88.3896 90.9067 88.6563 90.64C88.9496 90.3467 89.0963 89.8533 89.0963 89.16V77.64C89.0963 76.9467 88.9229 76.4667 88.5763 76.2C88.2563 75.9067 87.4163 75.6267 86.0563 75.36L86.2963 74.08L91.4563 73.56C91.6429 73.56 91.8296 73.9333 92.0163 74.68C92.2296 75.4 92.3363 76.0533 92.3363 76.64V76.88L92.6163 77L93.0163 76.48C93.6829 75.6267 94.5229 74.92 95.5363 74.36C96.5763 73.7733 97.6696 73.48 98.8163 73.48C101.376 73.48 103.003 74.6267 103.696 76.92L103.976 76.96L104.416 76.4C105.936 74.4533 107.843 73.48 110.136 73.48C111.763 73.48 113.03 74 113.936 75.04C114.87 76.08 115.336 77.5067 115.336 79.32V90.12C115.336 90.44 115.403 90.6533 115.536 90.76C115.696 90.84 115.896 90.9067 116.136 90.96L118.096 91.44L117.936 93H109.376L109.136 91.44C110.336 91.2 111.07 90.9333 111.336 90.64C111.603 90.3467 111.736 89.8533 111.736 89.16V80.08C111.736 77.6 110.736 76.36 108.736 76.36C107.696 76.36 106.39 76.88 104.816 77.92C104.496 78.1067 104.283 78.32 104.176 78.56C104.07 78.7733 104.016 79.1733 104.016 79.76V90.12C104.016 90.44 104.083 90.6533 104.216 90.76C104.376 90.84 104.576 90.9067 104.816 90.96L106.576 91.44L106.416 93H98.0563L97.8163 91.44C99.0163 91.2 99.7496 90.9333 100.016 90.64C100.283 90.3467 100.416 89.8533 100.416 89.16V80.08C100.416 77.6 99.4163 76.36 97.4163 76.36C96.3763 76.36 95.0696 76.88 93.4963 77.92C93.1763 78.1067 92.9629 78.32 92.8563 78.56C92.7496 78.7733 92.6963 79.1733 92.6963 79.76V90.12C92.6963 90.44 92.7629 90.6533 92.8963 90.76C93.0563 90.84 93.2563 90.9067 93.4963 90.96L95.2563 91.44L95.0963 93H86.5363ZM130.836 93L130.596 91.44C132.009 91.2 132.863 90.9333 133.156 90.64C133.476 90.3467 133.636 89.7867 133.636 88.96V69.32C133.636 68.4933 133.476 67.9333 133.156 67.64C132.863 67.3467 132.009 67.08 130.596 66.84L130.836 65.28H141.396C144.303 65.28 146.529 65.8667 148.076 67.04C149.623 68.1867 150.396 69.8 150.396 71.88C150.396 73.5333 149.943 74.9333 149.036 76.08C148.156 77.2 147.209 77.92 146.196 78.24V78.52C147.903 78.84 149.329 79.64 150.476 80.92C151.623 82.2 152.196 83.76 152.196 85.6C152.196 87.4133 151.396 89.1067 149.796 90.68C148.223 92.2267 145.796 93 142.516 93H130.836ZM137.516 77.68H139.756C141.943 77.68 143.543 77.2133 144.556 76.28C145.596 75.32 146.116 74.0133 146.116 72.36C146.116 69.0533 144.143 67.4 140.196 67.4H137.516V77.68ZM137.516 89.12C137.516 89.8933 137.716 90.36 138.116 90.52C138.516 90.7867 139.329 90.92 140.556 90.92C143.116 90.92 144.956 90.4667 146.076 89.56C147.196 88.6533 147.756 87.3467 147.756 85.64C147.756 83.16 146.756 81.4533 144.756 80.52C143.769 80.04 142.649 79.8 141.396 79.8H137.516V89.12Z" fill="#004603"/>
<defs>
<filter id="filter0_d" x="19" y="80" width="134.083" height="88.306" filterUnits="userSpaceOnUse" color-interpolation-filters="sRGB">
<feFlood flood-opacity="0" result="BackgroundImageFix"/>
<feColorMatrix in="SourceAlpha" type="matrix" values="0 0 0 0 0 0 0 0 0 0 0 0 0 0 0 0 0 0 127 0"/>
<feOffset dy="4"/>
<feGaussianBlur stdDeviation="2"/>
<feColorMatrix type="matrix" values="0 0 0 0 0 0 0 0 0 0 0 0 0 0 0 0 0 0 0.25 0"/>
<feBlend mode="normal" in2="BackgroundImageFix" result="effect1_dropShadow"/>
<feBlend mode="normal" in="SourceGraphic" in2="effect1_dropShadow" result="shape"/>
</filter>
<filter id="filter1_d" x="18" y="7.62939e-06" width="134.087" height="88.3121" filterUnits="userSpaceOnUse" color-interpolation-filters="sRGB">
<feFlood flood-opacity="0" result="BackgroundImageFix"/>
<feColorMatrix in="SourceAlpha" type="matrix" values="0 0 0 0 0 0 0 0 0 0 0 0 0 0 0 0 0 0 127 0"/>
<feOffset dy="4"/>
<feGaussianBlur stdDeviation="2"/>
<feColorMatrix type="matrix" values="0 0 0 0 0 0 0 0 0 0 0 0 0 0 0 0 0 0 0.25 0"/>
<feBlend mode="normal" in2="BackgroundImageFix" result="effect1_dropShadow"/>
<feBlend mode="normal" in="SourceGraphic" in2="effect1_dropShadow" result="shape"/>
</filter>
</defs>
</svg>
